<svg aria-hidden="true" style="position: absolute; width: 0; height: 0; overflow: hidden;" version="1.1" xmlns="http://www.w3.org/2000/svg" xmlns:xlink="http://www.w3.org/1999/xlink">
<defs>
<symbol id="icon-instagram" viewBox="0 0 16 16">
<title>instagram</title>
<path d="M15 0h-14c-0.553 0-1 0.447-1 1v14c0 0.553 0.447 1 1 1h14c0.553 0 1-0.447 1-1v-14c0-0.553-0.447-1-1-1zM6 8c0 0 0.158-2 2-2s2 2 2 2 0.058 2-2 2-2-2-2-2zM14 14h-12v-7h2.142c-0.083 0.321-0.142 0.652-0.142 1 0 2.209 1.791 4 4 4s4-1.791 4-4c0-0.348-0.059-0.679-0.142-1h2.142v7zM14 5h-3v-3h3v3z"></path>
</symbol>
<symbol id="icon-connection" viewBox="0 0 20 16">
<title>connection</title>
<path d="M10 9c1.654 0 3.154 0.673 4.241 1.759l-1.414 1.414c-0.724-0.724-1.724-1.173-2.827-1.173s-2.103 0.449-2.827 1.173l-1.414-1.414c1.086-1.086 2.586-1.759 4.241-1.759zM2.929 7.929c1.889-1.889 4.4-2.929 7.071-2.929s5.182 1.040 7.071 2.929l-1.414 1.414c-1.511-1.511-3.52-2.343-5.657-2.343s-4.146 0.832-5.657 2.343l-1.414-1.414zM15.45 2.101c1.667 0.705 3.164 1.715 4.45 3v0l-1.414 1.414c-2.267-2.266-5.28-3.515-8.485-3.515s-6.219 1.248-8.485 3.515l-1.414-1.414c1.285-1.285 2.783-2.295 4.45-3 1.727-0.73 3.56-1.101 5.45-1.101s3.723 0.37 5.45 1.101zM9 14c0-0.552 0.448-1 1-1s1 0.448 1 1c0 0.552-0.448 1-1 1s-1-0.448-1-1z"></path>
</symbol>
<symbol id="icon-lifebuoy" viewBox="0 0 16 16">
<title>lifebuoy</title>
<path d="M8 0c-4.418 0-8 3.582-8 8s3.582 8 8 8 8-3.582 8-8-3.582-8-8-8zM5 8c0-1.657 1.343-3 3-3s3 1.343 3 3-1.343 3-3 3-3-1.343-3-3zM14.468 10.679v0l-2.772-1.148c0.196-0.472 0.304-0.989 0.304-1.531s-0.108-1.059-0.304-1.531l2.772-1.148c0.342 0.825 0.532 1.73 0.532 2.679s-0.189 1.854-0.532 2.679v0zM10.679 1.532v0 0l-1.148 2.772c-0.472-0.196-0.989-0.304-1.531-0.304s-1.059 0.108-1.531 0.304l-1.148-2.772c0.825-0.342 1.73-0.532 2.679-0.532s1.854 0.189 2.679 0.532zM1.532 5.321l2.772 1.148c-0.196 0.472-0.304 0.989-0.304 1.531s0.108 1.059 0.304 1.531l-2.772 1.148c-0.342-0.825-0.532-1.73-0.532-2.679s0.189-1.854 0.532-2.679zM5.321 14.468l1.148-2.772c0.472 0.196 0.989 0.304 1.531 0.304s1.059-0.108 1.531-0.304l1.148 2.772c-0.825 0.342-1.73 0.532-2.679 0.532s-1.854-0.189-2.679-0.532z"></path>
</symbol>
<symbol id="icon-airplane" viewBox="0 0 16 16">
<title>airplane</title>
<path d="M12 9.999l-2.857-2.857 6.857-5.143-2-2-8.571 3.429-2.698-2.699c-0.778-0.778-1.864-0.964-2.414-0.414s-0.364 1.636 0.414 2.414l2.698 2.698-3.429 8.572 2 2 5.144-6.857 2.857 2.857v4h2l1-3 3-1v-2l-4 0z"></path>
</symbol>
<symbol id="icon-pinterest" viewBox="0 0 24 28">
<title>pinterest</title>
<path d="M24 14c0 6.625-5.375 12-12 12-1.188 0-2.312-0.172-3.406-0.5 0.453-0.719 0.969-1.641 1.219-2.562 0 0 0.141-0.531 0.844-3.297 0.406 0.797 1.625 1.5 2.922 1.5 3.859 0 6.484-3.516 6.484-8.234 0-3.547-3.016-6.875-7.609-6.875-5.688 0-8.563 4.094-8.563 7.5 0 2.063 0.781 3.906 2.453 4.594 0.266 0.109 0.516 0 0.594-0.313 0.063-0.203 0.187-0.734 0.25-0.953 0.078-0.313 0.047-0.406-0.172-0.672-0.484-0.578-0.797-1.313-0.797-2.359 0-3.031 2.266-5.75 5.906-5.75 3.219 0 5 1.969 5 4.609 0 3.453-1.531 6.375-3.813 6.375-1.25 0-2.188-1.031-1.891-2.312 0.359-1.516 1.062-3.156 1.062-4.25 0-0.984-0.531-1.813-1.625-1.813-1.281 0-2.312 1.328-2.312 3.109 0 0 0 1.141 0.391 1.906-1.313 5.563-1.547 6.531-1.547 6.531-0.219 0.906-0.234 1.922-0.203 2.766-4.234-1.859-7.187-6.078-7.187-11 0-6.625 5.375-12 12-12s12 5.375 12 12z"></path>
</symbol>
<symbol id="icon-twitter" viewBox="0 0 26 28">
<title>twitter</title>
<path d="M25.312 6.375c-0.688 1-1.547 1.891-2.531 2.609 0.016 0.219 0.016 0.438 0.016 0.656 0 6.672-5.078 14.359-14.359 14.359-2.859 0-5.516-0.828-7.75-2.266 0.406 0.047 0.797 0.063 1.219 0.063 2.359 0 4.531-0.797 6.266-2.156-2.219-0.047-4.078-1.5-4.719-3.5 0.313 0.047 0.625 0.078 0.953 0.078 0.453 0 0.906-0.063 1.328-0.172-2.312-0.469-4.047-2.5-4.047-4.953v-0.063c0.672 0.375 1.453 0.609 2.281 0.641-1.359-0.906-2.25-2.453-2.25-4.203 0-0.938 0.25-1.797 0.688-2.547 2.484 3.062 6.219 5.063 10.406 5.281-0.078-0.375-0.125-0.766-0.125-1.156 0-2.781 2.25-5.047 5.047-5.047 1.453 0 2.766 0.609 3.687 1.594 1.141-0.219 2.234-0.641 3.203-1.219-0.375 1.172-1.172 2.156-2.219 2.781 1.016-0.109 2-0.391 2.906-0.781z"></path>
</symbol>
<symbol id="icon-facebook" viewBox="0 0 16 28">
<title>facebook</title>
<path d="M14.984 0.187v4.125h-2.453c-1.922 0-2.281 0.922-2.281 2.25v2.953h4.578l-0.609 4.625h-3.969v11.859h-4.781v-11.859h-3.984v-4.625h3.984v-3.406c0-3.953 2.422-6.109 5.953-6.109 1.687 0 3.141 0.125 3.563 0.187z"></path>
</symbol>
<symbol id="icon-phone" viewBox="0 0 22 28">
<title>phone</title>
<path d="M22 19.375c0 0.562-0.25 1.656-0.484 2.172-0.328 0.766-1.203 1.266-1.906 1.656-0.922 0.5-1.859 0.797-2.906 0.797-1.453 0-2.766-0.594-4.094-1.078-0.953-0.344-1.875-0.766-2.734-1.297-2.656-1.641-5.859-4.844-7.5-7.5-0.531-0.859-0.953-1.781-1.297-2.734-0.484-1.328-1.078-2.641-1.078-4.094 0-1.047 0.297-1.984 0.797-2.906 0.391-0.703 0.891-1.578 1.656-1.906 0.516-0.234 1.609-0.484 2.172-0.484 0.109 0 0.219 0 0.328 0.047 0.328 0.109 0.672 0.875 0.828 1.188 0.5 0.891 0.984 1.797 1.5 2.672 0.25 0.406 0.719 0.906 0.719 1.391 0 0.953-2.828 2.344-2.828 3.187 0 0.422 0.391 0.969 0.609 1.344 1.578 2.844 3.547 4.813 6.391 6.391 0.375 0.219 0.922 0.609 1.344 0.609 0.844 0 2.234-2.828 3.187-2.828 0.484 0 0.984 0.469 1.391 0.719 0.875 0.516 1.781 1 2.672 1.5 0.313 0.156 1.078 0.5 1.188 0.828 0.047 0.109 0.047 0.219 0.047 0.328z"></path>
</symbol>
<symbol id="icon-keyboard_arrow_down" viewBox="0 0 24 24">
<title>keyboard_arrow_down</title>
<path d="M7.406 7.828l4.594 4.594 4.594-4.594 1.406 1.406-6 6-6-6z"></path>
</symbol>
<symbol id="icon-clock-o" viewBox="0 0 24 28">
<title>clock-o</title>
<path d="M14 8.5v7c0 0.281-0.219 0.5-0.5 0.5h-5c-0.281 0-0.5-0.219-0.5-0.5v-1c0-0.281 0.219-0.5 0.5-0.5h3.5v-5.5c0-0.281 0.219-0.5 0.5-0.5h1c0.281 0 0.5 0.219 0.5 0.5zM20.5 14c0-4.688-3.813-8.5-8.5-8.5s-8.5 3.813-8.5 8.5 3.813 8.5 8.5 8.5 8.5-3.813 8.5-8.5zM24 14c0 6.625-5.375 12-12 12s-12-5.375-12-12 5.375-12 12-12 12 5.375 12 12z"></path>
</symbol>
</defs>
</svg>
